<?xml version="1.0" encoding="UTF-8" standalone="no"?>
<!DOCTYPE svg PUBLIC "-//W3C//DTD SVG 1.1//EN" "http://www.w3.org/Graphics/SVG/1.1/DTD/svg11.dtd">
<svg width="100%" height="100%" viewBox="0 0 43 44" version="1.1" xmlns="http://www.w3.org/2000/svg" xmlns:xlink="http://www.w3.org/1999/xlink" xml:space="preserve" xmlns:serif="http://www.serif.com/" style="fill-rule:evenodd;clip-rule:evenodd;stroke-linejoin:round;stroke-miterlimit:2;">
    <g transform="matrix(1.74582,0,0,1.74582,-15.9724,-7.6428)">
        <g>
            <path d="M18.802,28.82L18.638,28.82C18.238,28.714 18.056,28.441 18.032,28.044C18.026,27.934 18.015,27.827 18.013,27.717C18.011,26.962 18.008,26.208 18.006,25.453C18.006,25.262 17.987,25.07 17.95,24.883C17.907,24.66 17.77,24.526 17.55,24.477C17.449,24.455 17.346,24.434 17.243,24.43C16.108,24.371 14.97,24.324 13.835,24.258C13.218,24.221 12.599,24.204 11.991,24.096C10.655,23.86 9.806,23.013 9.58,21.708C9.567,21.628 9.552,21.546 9.537,21.467L9.537,20.482C9.578,20.069 9.611,19.654 9.66,19.244C9.989,16.494 10.993,14.011 12.608,11.768C13.225,10.91 13.917,10.113 14.62,9.324C15.639,8.182 16.738,7.126 18.017,6.271C18.742,5.787 19.496,5.376 20.367,5.221C20.533,5.191 20.7,5.17 20.868,5.144L21.491,5.144C21.534,5.153 21.575,5.168 21.618,5.17C22.057,5.204 22.485,5.301 22.898,5.449C24.742,6.112 26.273,7.23 27.567,8.687C28.26,9.466 28.866,10.308 29.464,11.16C30.38,12.471 31.252,13.808 31.885,15.286C32.431,16.561 32.91,17.857 33.205,19.214C33.269,19.512 33.301,19.818 33.349,20.119L33.349,21.17C33.338,21.224 33.323,21.275 33.314,21.329C33.17,22.196 32.77,22.92 32.082,23.468C31.487,23.944 30.807,24.21 30.04,24.107C28.868,23.95 27.836,22.935 27.602,21.759C27.559,21.546 27.565,21.538 27.782,21.555C28.408,21.602 28.948,21.179 29.034,20.57C29.12,19.962 28.722,19.405 28.107,19.276C28.027,19.259 27.944,19.246 27.87,19.214C27.559,19.078 27.501,18.661 27.757,18.44C28.279,17.99 28.382,17.362 28.021,16.778C27.972,16.698 27.965,16.636 28.019,16.554C28.257,16.193 28.313,15.817 28.077,15.43C27.933,15.193 27.946,14.965 28.107,14.739C28.171,14.649 28.214,14.552 28.223,14.438C28.277,13.768 27.812,13.215 27.144,13.155C26.817,13.125 26.735,13.045 26.703,12.725C26.63,12.005 26.056,11.536 25.357,11.628C25.097,11.663 25.041,11.633 24.925,11.39C24.615,10.745 23.865,10.489 23.229,10.811C22.857,11.001 22.726,10.971 22.48,10.642C22.087,10.113 21.36,9.997 20.831,10.39C20.586,10.573 20.328,10.629 20.029,10.575C19.526,10.482 19.116,10.65 18.802,11.054C18.572,11.353 18.432,11.377 18.086,11.203C17.613,10.964 17.159,10.992 16.733,11.325C16.568,11.454 16.469,11.631 16.385,11.815C16.301,12 16.185,12.162 16.009,12.258C15.6,12.482 15.338,12.804 15.254,13.273C15.218,13.475 15.054,13.583 14.846,13.587C14.768,13.589 14.693,13.585 14.616,13.583C14.147,13.568 13.788,13.759 13.549,14.163C13.3,14.585 13.283,15.028 13.541,15.44C13.67,15.647 13.631,15.789 13.519,15.956C13.468,16.034 13.416,16.111 13.375,16.195C13.126,16.702 13.244,17.253 13.672,17.601C13.822,17.724 14.001,17.795 14.175,17.874C14.405,17.977 14.45,18.063 14.411,18.313C14.36,18.655 14.429,18.966 14.635,19.244C14.912,19.614 15.424,19.809 15.792,19.659C16.039,19.558 16.228,19.607 16.422,19.775C16.819,20.117 17.209,20.151 17.675,19.895C17.781,19.837 17.83,19.85 17.897,19.951C18.189,20.392 18.711,20.605 19.225,20.501C19.724,20.4 20.077,20.028 20.18,19.495C20.186,19.463 20.191,19.431 20.197,19.399C20.208,19.345 20.216,19.285 20.277,19.265C20.345,19.244 20.391,19.289 20.434,19.332C20.53,19.431 20.601,19.547 20.674,19.663C21.122,20.381 21.988,20.504 22.614,19.936C22.831,19.738 23.05,19.732 23.274,19.925C23.431,20.061 23.603,20.168 23.805,20.203C23.953,20.228 24.018,20.306 24.059,20.439C24.297,21.217 24.203,21.955 23.779,22.647C23.459,23.17 23.113,23.675 22.749,24.171C21.672,25.642 20.459,27.007 19.318,28.426C19.184,28.596 19.019,28.74 18.802,28.82Z" style="fill:url(#_Linear1);fill-rule:nonzero;"/>
            <path d="M21.313,14.243C21.554,14.082 21.627,13.778 21.487,13.52C21.463,13.477 21.438,13.434 21.416,13.391C21.229,12.983 21.248,12.589 21.528,12.233C21.814,11.867 22.199,11.74 22.655,11.839C22.947,11.901 23.166,12.063 23.34,12.31C23.573,12.641 24.024,12.654 24.25,12.349C24.409,12.134 24.396,11.835 24.222,11.635C24.048,11.437 23.753,11.398 23.502,11.54C22.956,11.848 22.384,11.738 22.014,11.248C21.909,11.11 21.792,10.994 21.631,10.925L21.468,10.925C20.904,11.151 20.827,11.362 21.104,11.917C21.298,12.301 21.216,12.832 20.915,13.138C20.823,13.23 20.713,13.305 20.619,13.396C20.401,13.604 20.386,13.922 20.578,14.153C20.75,14.363 21.072,14.404 21.313,14.243Z" style="fill:url(#_Linear2);fill-rule:nonzero;"/>
            <path d="M26.385,19.684C26.161,19.743 26.017,19.712 25.951,19.571C25.856,19.368 25.8,19.153 25.882,18.936C26.004,18.614 26.439,18.115 26.959,18.115C27.256,18.115 27.449,17.98 27.522,17.752C27.61,17.483 27.539,17.289 27.29,17.096C27.01,16.881 27.01,16.647 27.292,16.427C27.655,16.146 27.658,15.765 27.294,15.483C27.047,15.292 27.045,15.094 27.288,14.892C27.38,14.815 27.475,14.737 27.52,14.621C27.658,14.279 27.421,13.933 27.03,13.912C26.856,13.903 26.694,13.869 26.544,13.783C26.202,13.585 26.039,13.284 26.024,12.893C26.013,12.589 25.817,12.4 25.525,12.398C25.23,12.394 25.028,12.579 25,12.873C24.994,12.955 24.981,13.037 24.964,13.116C24.809,13.836 23.964,14.155 23.377,13.714C23.054,13.471 22.917,13.14 22.91,12.746C22.906,12.538 22.833,12.372 22.655,12.263C22.446,12.134 22.201,12.151 22.01,12.299C21.84,12.432 21.762,12.663 21.82,12.873C21.883,13.103 22.074,13.267 22.317,13.288C22.511,13.305 22.695,13.346 22.857,13.46C23.192,13.697 23.377,14.008 23.366,14.432C23.358,14.804 23.62,15.053 23.973,15.032C24.269,15.015 24.465,14.795 24.486,14.458C24.525,13.852 24.944,13.426 25.508,13.424C26.03,13.424 26.52,13.877 26.52,14.428C26.52,14.593 26.596,14.733 26.725,14.841C27.073,15.131 27.066,15.255 26.692,15.52C26.411,15.72 26.381,16.103 26.63,16.346C26.684,16.399 26.75,16.44 26.806,16.494C26.976,16.655 26.98,16.842 26.819,17.012C26.778,17.055 26.733,17.098 26.686,17.132C26.533,17.244 26.464,17.399 26.451,17.582C26.411,18.195 25.985,18.607 25.366,18.635C25.052,18.648 24.835,18.874 24.837,19.186C24.837,19.48 25.015,19.695 25.29,19.745C25.398,19.764 25.495,19.719 25.596,19.704C25.867,19.659 26.017,19.783 26.024,20.056C26.026,20.173 26.028,20.286 26.077,20.394C26.193,20.648 26.494,20.766 26.755,20.656C27.008,20.549 27.133,20.261 27.036,20.003C26.937,19.732 26.682,19.607 26.385,19.684Z" style="fill:url(#_Linear3);fill-rule:nonzero;"/>
            <path d="M24.42,18.631C24.203,18.483 23.921,18.508 23.712,18.706C23.487,18.921 23.229,19.039 22.865,19.035C22.392,19.035 21.967,18.698 21.853,18.186C21.764,17.79 21.883,17.457 22.147,17.156C22.409,16.857 22.278,16.401 21.906,16.272C21.674,16.193 21.397,16.281 21.264,16.477C21.111,16.702 21.111,16.995 21.317,17.186C21.76,17.593 21.786,18.386 21.319,18.803C21.238,18.876 21.199,18.984 21.195,19.098C21.184,19.334 21.317,19.56 21.526,19.657C21.754,19.762 21.964,19.725 22.158,19.54C22.468,19.246 22.829,19.143 23.246,19.235C23.439,19.278 23.592,19.388 23.74,19.515C24.05,19.779 24.51,19.663 24.648,19.291C24.738,19.046 24.648,18.786 24.42,18.631Z" style="fill:url(#_Linear4);fill-rule:nonzero;"/>
            <path d="M21.332,17.797C21.291,17.498 20.98,17.281 20.681,17.345C20.399,17.405 20.266,17.567 20.208,17.917C20.113,18.483 19.561,18.9 19.006,18.822C18.404,18.738 17.972,18.207 18.03,17.627C18.054,17.397 17.948,17.193 17.738,17.085C17.525,16.975 17.314,16.995 17.12,17.139C16.944,17.268 16.867,17.494 16.925,17.709C17,17.98 17.196,18.096 17.462,18.143C18.066,18.25 18.41,18.674 18.404,19.278C18.4,19.611 18.458,19.745 18.653,19.856C19.049,20.084 19.468,19.876 19.528,19.424C19.569,19.117 19.709,18.87 19.956,18.676C20.214,18.474 20.509,18.442 20.823,18.444C21.152,18.446 21.38,18.143 21.332,17.797Z" style="fill:url(#_Linear5);fill-rule:nonzero;"/>
            <path d="M14.53,15.46C14.798,15.516 15.037,15.627 15.213,15.849C15.413,16.1 15.506,16.38 15.459,16.705C15.42,16.982 15.585,17.236 15.841,17.319C16.097,17.403 16.383,17.287 16.512,17.049C16.637,16.821 16.574,16.524 16.366,16.352C16.273,16.275 16.164,16.251 16.05,16.225C15.512,16.105 15.162,15.683 15.158,15.157C15.153,14.49 15.749,13.968 16.409,14.062C16.654,14.099 16.839,14 16.972,13.804C17.093,13.628 17.09,13.432 16.987,13.245C16.873,13.037 16.69,12.946 16.458,12.957C16.187,12.97 16.002,13.151 15.938,13.46C15.815,14.049 15.289,14.434 14.715,14.357C14.364,14.309 14.11,14.488 14.048,14.828C13.994,15.122 14.196,15.389 14.53,15.46Z" style="fill:url(#_Linear6);fill-rule:nonzero;"/>
            <path d="M17.215,12.865C17.548,13.088 17.718,13.402 17.72,13.856C17.731,14.011 17.667,14.196 17.563,14.368C17.497,14.479 17.454,14.593 17.471,14.724C17.507,14.985 17.707,15.197 17.942,15.225C18.223,15.258 18.46,15.118 18.554,14.862C18.647,14.615 18.561,14.37 18.327,14.204C17.806,13.839 17.673,13.219 17.985,12.686C18.223,12.28 18.92,11.987 19.475,12.325C19.526,12.355 19.58,12.385 19.636,12.405C19.836,12.471 20.016,12.428 20.171,12.291C20.322,12.155 20.399,11.987 20.354,11.777C20.3,11.529 20.146,11.381 19.905,11.332C19.675,11.284 19.483,11.368 19.348,11.562C19.212,11.755 19.051,11.912 18.83,12C18.481,12.14 18.146,12.116 17.821,11.927C17.682,11.848 17.535,11.781 17.37,11.841C17.142,11.923 16.989,12.073 16.953,12.323C16.918,12.562 17.019,12.734 17.215,12.865Z" style="fill:url(#_Linear7);fill-rule:nonzero;"/>
            <path d="M24.046,15.662C23.532,15.739 23.054,15.43 22.915,14.929C22.889,14.841 22.867,14.748 22.827,14.666C22.702,14.426 22.409,14.331 22.164,14.445C21.915,14.561 21.799,14.836 21.891,15.09C21.984,15.344 22.158,15.434 22.53,15.421L22.644,15.421C23.057,15.421 23.358,15.623 23.543,15.978C23.738,16.352 23.661,16.711 23.405,17.046C23.237,17.266 23.033,17.378 22.771,17.444C22.521,17.507 22.379,17.702 22.379,17.945C22.379,18.182 22.519,18.369 22.756,18.444C23.106,18.554 23.439,18.261 23.411,17.87C23.364,17.227 23.646,16.836 24.261,16.679C24.568,16.601 24.734,16.356 24.673,16.072C24.607,15.771 24.366,15.612 24.046,15.662Z" style="fill:url(#_Linear8);fill-rule:nonzero;"/>
            <path d="M16.916,18.47C16.826,18.502 16.759,18.566 16.684,18.622C16.437,18.805 16.226,18.758 16.101,18.476C16.013,18.274 15.873,18.156 15.661,18.098C15.151,17.958 14.861,17.487 14.942,16.963C14.951,16.909 14.96,16.855 14.96,16.799C14.958,16.545 14.762,16.313 14.521,16.277C14.276,16.238 14.046,16.395 13.96,16.655C13.874,16.915 13.964,17.12 14.227,17.249C14.33,17.3 14.435,17.343 14.54,17.39C14.844,17.53 15.029,17.762 15.097,18.093C15.132,18.268 15.091,18.431 15.082,18.599C15.074,18.805 15.16,18.962 15.336,19.063C15.517,19.168 15.701,19.162 15.88,19.046C15.944,19.005 16,18.951 16.067,18.913C16.256,18.796 16.445,18.848 16.555,19.042C16.585,19.093 16.607,19.151 16.635,19.203C16.764,19.448 17.06,19.545 17.31,19.424C17.568,19.3 17.675,19.024 17.57,18.762C17.462,18.506 17.179,18.379 16.916,18.47Z" style="fill:url(#_Linear9);fill-rule:nonzero;"/>
            <path d="M20.735,16.161C21.057,16.12 21.285,15.875 21.296,15.554C21.307,15.262 21.094,14.995 20.76,14.944C20.214,14.862 19.698,14.318 19.759,13.619L19.759,13.48C19.756,13.142 19.518,12.886 19.182,12.86C18.89,12.839 18.585,13.088 18.542,13.385C18.496,13.71 18.703,14.015 19.036,14.071C19.752,14.193 20.184,14.877 20.064,15.494C19.993,15.86 20.365,16.208 20.735,16.161Z" style="fill:url(#_Linear10);fill-rule:nonzero;"/>
            <path d="M24.989,17.279C25.017,17.567 25.209,17.775 25.488,17.838C25.729,17.889 26.002,17.767 26.133,17.545C26.277,17.304 26.269,17.027 26.054,16.821C25.596,16.38 25.564,15.567 26.073,15.064C26.183,14.957 26.232,14.817 26.226,14.662C26.226,14.389 26.047,14.153 25.785,14.077C25.521,14 25.241,14.109 25.088,14.35C24.951,14.567 24.977,14.881 25.17,15.077C25.643,15.55 25.632,16.354 25.185,16.778C25.045,16.911 24.97,17.081 24.989,17.279Z" style="fill:url(#_Linear11);fill-rule:nonzero;"/>
            <path d="M18.856,18.22C19.055,18.382 19.376,18.354 19.554,18.158C19.741,17.956 19.733,17.659 19.533,17.446C19.09,16.975 19.071,16.496 19.47,15.978C19.602,15.808 19.627,15.621 19.526,15.425C19.43,15.236 19.275,15.146 19,15.15C18.918,15.15 18.834,15.178 18.744,15.255C18.49,15.47 18.475,15.804 18.724,16.047C18.948,16.264 19.038,16.518 19.032,16.827C19.025,17.096 18.905,17.302 18.75,17.509C18.574,17.752 18.621,18.031 18.856,18.22Z" style="fill:url(#_Linear12);fill-rule:nonzero;"/>
            <path d="M17.877,15.814C17.697,15.806 17.516,15.819 17.346,15.741C16.961,15.569 16.761,15.273 16.701,14.858C16.663,14.587 16.383,14.398 16.125,14.441C15.852,14.486 15.658,14.731 15.682,15.004C15.708,15.273 15.953,15.496 16.224,15.466C16.792,15.402 17.295,15.836 17.357,16.373C17.389,16.657 17.598,16.836 17.877,16.838C18.002,16.844 18.12,16.801 18.221,16.707C18.378,16.561 18.432,16.335 18.35,16.135C18.266,15.924 18.097,15.825 17.877,15.814Z" style="fill:url(#_Linear13);fill-rule:nonzero;"/>
            <path d="M28.356,20.4C28.315,20.2 28.156,20.061 27.913,20.02C27.417,19.934 27.105,19.568 27.107,19.078C27.107,19.024 27.114,18.969 27.105,18.915C27.079,18.719 26.976,18.579 26.791,18.506C26.611,18.437 26.447,18.472 26.303,18.599C26.155,18.732 26.101,18.898 26.159,19.089C26.221,19.291 26.368,19.401 26.578,19.433C26.995,19.495 27.26,19.734 27.38,20.134C27.417,20.256 27.395,20.383 27.404,20.51C27.428,20.888 27.812,21.106 28.128,20.921C28.318,20.809 28.401,20.62 28.356,20.4Z" style="fill:url(#_Linear14);fill-rule:nonzero;"/>
        </g>
    </g>
    <defs>
        <linearGradient id="_Linear1" x1="0" y1="0" x2="1" y2="0" gradientUnits="userSpaceOnUse" gradientTransform="matrix(1.44193e-15,-23.5485,23.5485,1.44193e-15,76.2094,28.32)"><stop offset="0" style="stop-color:rgb(0,103,255);stop-opacity:1"/><stop offset="1" style="stop-color:rgb(31,154,255);stop-opacity:1"/></linearGradient>
        <linearGradient id="_Linear2" x1="0" y1="0" x2="1" y2="0" gradientUnits="userSpaceOnUse" gradientTransform="matrix(2.09364e-16,-3.41917,3.41917,2.09364e-16,30.3496,13.8407)"><stop offset="0" style="stop-color:rgb(14,190,228);stop-opacity:1"/><stop offset="1" style="stop-color:rgb(19,221,219);stop-opacity:1"/></linearGradient>
        <linearGradient id="_Linear3" x1="0" y1="0" x2="1" y2="0" gradientUnits="userSpaceOnUse" gradientTransform="matrix(5.21893e-16,-8.52316,8.52316,5.21893e-16,44.5072,20.1957)"><stop offset="0" style="stop-color:rgb(0,103,255);stop-opacity:1"/><stop offset="1" style="stop-color:rgb(19,221,219);stop-opacity:1"/></linearGradient>
        <linearGradient id="_Linear4" x1="0" y1="0" x2="1" y2="0" gradientUnits="userSpaceOnUse" gradientTransform="matrix(2.12623e-16,-3.4724,3.4724,2.12623e-16,30.9931,19.2151)"><stop offset="0" style="stop-color:rgb(0,103,255);stop-opacity:1"/><stop offset="1" style="stop-color:rgb(10,162,237);stop-opacity:1"/></linearGradient>
        <linearGradient id="_Linear5" x1="0" y1="0" x2="1" y2="0" gradientUnits="userSpaceOnUse" gradientTransform="matrix(1.79608e-16,-2.93322,2.93322,1.79608e-16,25.9443,19.45)"><stop offset="0" style="stop-color:rgb(0,103,255);stop-opacity:1"/><stop offset="1" style="stop-color:rgb(8,153,240);stop-opacity:1"/></linearGradient>
        <linearGradient id="_Linear6" x1="0" y1="0" x2="1" y2="0" gradientUnits="userSpaceOnUse" gradientTransform="matrix(2.68772e-16,-4.38938,4.38938,2.68772e-16,25.7603,16.8448)"><stop offset="0" style="stop-color:rgb(10,162,237);stop-opacity:1"/><stop offset="1" style="stop-color:rgb(19,221,219);stop-opacity:1"/></linearGradient>
        <linearGradient id="_Linear7" x1="0" y1="0" x2="1" y2="0" gradientUnits="userSpaceOnUse" gradientTransform="matrix(2.39477e-16,-3.91096,3.91096,2.39477e-16,27.7526,14.7298)"><stop offset="0" style="stop-color:rgb(12,177,232);stop-opacity:1"/><stop offset="1" style="stop-color:rgb(19,221,219);stop-opacity:1"/></linearGradient>
        <linearGradient id="_Linear8" x1="0" y1="0" x2="1" y2="0" gradientUnits="userSpaceOnUse" gradientTransform="matrix(2.49231e-16,-4.07025,4.07025,2.49231e-16,32.7371,17.9664)"><stop offset="0" style="stop-color:rgb(5,133,246);stop-opacity:1"/><stop offset="1" style="stop-color:rgb(14,190,228);stop-opacity:1"/></linearGradient>
        <linearGradient id="_Linear9" x1="0" y1="0" x2="1" y2="0" gradientUnits="userSpaceOnUse" gradientTransform="matrix(1.96328e-16,-3.20627,3.20627,1.96328e-16,23.2252,18.9764)"><stop offset="0" style="stop-color:rgb(0,103,255);stop-opacity:1"/><stop offset="1" style="stop-color:rgb(12,174,233);stop-opacity:1"/></linearGradient>
        <linearGradient id="_Linear10" x1="0" y1="0" x2="1" y2="0" gradientUnits="userSpaceOnUse" gradientTransform="matrix(2.02337e-16,-3.30442,3.30442,2.02337e-16,27.6008,15.6655)"><stop offset="0" style="stop-color:rgb(10,165,236);stop-opacity:1"/><stop offset="0.99" style="stop-color:rgb(19,221,219);stop-opacity:1"/><stop offset="1" style="stop-color:rgb(19,221,219);stop-opacity:1"/></linearGradient>
        <linearGradient id="_Linear11" x1="0" y1="0" x2="1" y2="0" gradientUnits="userSpaceOnUse" gradientTransform="matrix(2.32502e-16,-3.79705,3.79705,2.32502e-16,34.4388,17.3494)"><stop offset="0" style="stop-color:rgb(7,144,242);stop-opacity:1"/><stop offset="1" style="stop-color:rgb(14,188,229);stop-opacity:1"/></linearGradient>
        <linearGradient id="_Linear12" x1="0" y1="0" x2="1" y2="0" gradientUnits="userSpaceOnUse" gradientTransform="matrix(1.94299e-16,-3.17314,3.17314,1.94299e-16,26.4997,17.8253)"><stop offset="0" style="stop-color:rgb(6,137,245);stop-opacity:1"/><stop offset="1" style="stop-color:rgb(12,176,233);stop-opacity:1"/></linearGradient>
        <linearGradient id="_Linear13" x1="0" y1="0" x2="1" y2="0" gradientUnits="userSpaceOnUse" gradientTransform="matrix(1.47145e-16,-2.40305,2.40305,1.47145e-16,22.6233,16.3397)"><stop offset="0" style="stop-color:rgb(12,175,233);stop-opacity:1"/><stop offset="0.84" style="stop-color:rgb(15,195,227);stop-opacity:1"/><stop offset="1" style="stop-color:rgb(15,195,227);stop-opacity:1"/></linearGradient>
        <linearGradient id="_Linear14" x1="0" y1="0" x2="1" y2="0" gradientUnits="userSpaceOnUse" gradientTransform="matrix(1.54031e-16,-2.51552,2.51552,1.54031e-16,33.1035,20.4859)"><stop offset="0" style="stop-color:rgb(0,103,255);stop-opacity:1"/><stop offset="1" style="stop-color:rgb(5,137,245);stop-opacity:1"/></linearGradient>
    </defs>
</svg>
